<?xml version="1.0" encoding="UTF-8" standalone="no"?>
<svg
   xmlns:dc="http://purl.org/dc/elements/1.1/"
   xmlns:cc="http://creativecommons.org/ns#"
   xmlns:rdf="http://www.w3.org/1999/02/22-rdf-syntax-ns#"
   xmlns:svg="http://www.w3.org/2000/svg"
   xmlns="http://www.w3.org/2000/svg"
   xmlns:sodipodi="http://sodipodi.sourceforge.net/DTD/sodipodi-0.dtd"
   xmlns:inkscape="http://www.inkscape.org/namespaces/inkscape"
   inkscape:version="1.0 (4035a4fb49, 2020-05-01)"
   sodipodi:docname="boardOutline.svg"
   id="svg12"
   xml:space="preserve"
   style="enable-background:new 0 0 100 100;"
   viewBox="0 0 100 125"
   y="0px"
   x="0px"
   version="1.1"><metadata
     id="metadata18"><rdf:RDF><cc:Work
         rdf:about=""><dc:format>image/svg+xml</dc:format><dc:type
           rdf:resource="http://purl.org/dc/dcmitype/StillImage" /><dc:title></dc:title></cc:Work></rdf:RDF></metadata><defs
     id="defs16" /><sodipodi:namedview
     inkscape:current-layer="g6"
     inkscape:window-maximized="1"
     inkscape:window-y="-8"
     inkscape:window-x="-8"
     inkscape:cy="54.494382"
     inkscape:cx="46.629213"
     inkscape:zoom="7.12"
     showgrid="false"
     id="namedview14"
     inkscape:window-height="1057"
     inkscape:window-width="1920"
     inkscape:pageshadow="2"
     inkscape:pageopacity="0"
     guidetolerance="10"
     gridtolerance="10"
     objecttolerance="10"
     borderopacity="1"
     bordercolor="#666666"
     pagecolor="#ffffff" /><g
     transform="matrix(1.0224949,0,0,1.0224949,-0.37116564,-0.02249489)"
     id="g6"><path
       id="path2"
       d="m 64.913768,59.182963 c -0.5888,-1.373864 -1.079466,-2.845863 -1.373865,-4.219727 -0.588799,-2.453331 -0.686933,-3.925329 -0.785066,-5.78986 -0.09813,-1.570131 -0.09813,-3.238396 -0.490666,-5.789859 -0.588799,-3.729062 -1.275732,-6.574925 -3.140263,-9.813321 -1.86453,-3.238395 -5.789859,-5.397326 -8.635722,-6.869324 l 8.24319,-14.523715 -12.85545,5.397327 C 44.992727,17.378217 44.011395,17.083818 43.128196,16.887551 42.735663,16.789418 42.34313,16.691285 42.04873,16.593152 L 38.123402,1.1862381 28.604481,14.924887 c -0.392533,0 -0.785066,0.09813 -1.177598,0.09813 -0.2944,0 -0.5888,0 -0.785066,0 -0.392533,0 -0.686932,0 -1.079465,0 L 14.473299,7.761163 18.496761,24.836341 c -3.827195,0.686932 -7.65439,5.004794 -9.7151877,7.65439 l -0.490666,0.686933 v 0.785065 c 0,0.785066 0.1962664,1.471998 0.490666,2.060798 -0.490666,0.490666 -1.0794653,1.079465 -1.5701313,1.570131 -1.3738649,1.373865 -2.7477298,2.845863 -4.0234615,4.219728 l -2.0607973,2.257064 2.2570637,1.373864 c -0.3925328,0.392533 -0.7850656,1.079466 -0.8831988,1.962665 -0.098133,0.490666 0,1.079465 0,1.766397 0.098133,0.981332 0.3925328,2.158931 0.6869324,3.140263 0.1962664,0.686932 0.5887992,1.962664 1.5701313,2.74773 -0.098133,0.294399 -0.1962664,0.686932 -0.1962664,0.981332 -0.5887992,3.434662 0.9813321,6.084259 1.9626641,7.850656 0.5887993,1.079466 -0.3925328,4.415995 -0.3925328,4.415995 0.9813321,2.943996 2.355197,5.789859 4.0234613,8.537589 2.649597,4.317861 6.084259,8.046923 10.107721,11.089052 7.556256,5.789859 15.406913,7.752523 20.607973,8.341323 l 7.163724,0.883199 -5.102927,-5.102927 c -0.09813,-0.09813 -0.294399,-0.2944 -0.392532,-0.392533 l 0.392532,-2.845863 c 0.392533,-2.551463 1.177599,-5.004794 2.257064,-7.359991 1.570131,-3.336529 3.336529,-5.299193 5.102927,-7.261857 1.864531,-2.060797 3.729062,-4.219728 5.102927,-7.556257 0.785065,-2.060797 1.275731,-4.219728 1.373865,-6.476791 1.570131,0.981332 3.336529,1.766397 5.102926,2.257063 l 4.906661,1.275732 z"
       style="fill:none;stroke:#000000;stroke-width:0.981332" /></g></svg>
