<?xml version="1.0" encoding="UTF-8" standalone="no"?>
<svg
   xmlns:dc="http://purl.org/dc/elements/1.1/"
   xmlns:cc="http://creativecommons.org/ns#"
   xmlns:rdf="http://www.w3.org/1999/02/22-rdf-syntax-ns#"
   xmlns:svg="http://www.w3.org/2000/svg"
   xmlns="http://www.w3.org/2000/svg"
   xmlns:sodipodi="http://sodipodi.sourceforge.net/DTD/sodipodi-0.dtd"
   xmlns:inkscape="http://www.inkscape.org/namespaces/inkscape"
   height="3.9370079in"
   width="3.9370079in"
   version="1.1"
   x="0px"
   y="0px"
   viewBox="0 0 377.95275 377.95274"
   xml:space="preserve"
   id="svg12"
   sodipodi:docname="screengraphic_KS.svg"
   inkscape:version="1.0 (4035a4fb49, 2020-05-01)"><metadata
     id="metadata18"><rdf:RDF><cc:Work
         rdf:about=""><dc:format>image/svg+xml</dc:format><dc:type
           rdf:resource="http://purl.org/dc/dcmitype/StillImage" /><dc:title></dc:title></cc:Work></rdf:RDF></metadata><defs
     id="defs16" /><sodipodi:namedview
     showguides="false"
     units="in"
     inkscape:document-units="in"
     inkscape:document-rotation="0"
     pagecolor="#ffffff"
     bordercolor="#666666"
     borderopacity="1"
     objecttolerance="10"
     gridtolerance="10"
     guidetolerance="10"
     inkscape:pageopacity="0"
     inkscape:pageshadow="2"
     inkscape:window-width="1920"
     inkscape:window-height="1057"
     id="namedview14"
     showgrid="false"
     inkscape:zoom="1.78"
     inkscape:cx="281.32897"
     inkscape:cy="181.69415"
     inkscape:window-x="-8"
     inkscape:window-y="-8"
     inkscape:window-maximized="1"
     inkscape:current-layer="g22" /><g
     id="g6"
     transform="matrix(1.0224949,0,0,1.0224949,-0.37116564,-0.02249489)"><g
       id="g22"
       style="fill:none;stroke:#000000"
       transform="matrix(3.7089715,0,0,3.7089715,-57.946779,0.71329835)"><path
         id="path2"
         d="M 81.5,60.1 C 80.9,58.7 80.4,57.2 80.1,55.8 79.5,53.3 79.4,51.8 79.3,49.9 79.2,48.3 79.2,46.6 78.8,44 78.2,40.2 77.5,37.3 75.6,34 73.7,30.7 69.7,28.5 66.8,27 L 75.2,12.2 62.1,17.7 C 61.2,17.5 60.2,17.2 59.3,17 58.9,16.9 58.5,16.8 58.2,16.7 L 54.2,1 44.5,15 c -0.4,0 -0.8,0.1 -1.2,0.1 -0.3,0 -0.6,0 -0.8,0 -0.4,0 -0.7,0 -1.1,0 L 30.1,7.7 34.2,25.1 c -3.9,0.7 -7.8,5.1 -9.9,7.8 l -0.5,0.7 v 0.8 c 0,0.8 0.2,1.5 0.5,2.1 -0.5,0.5 -1.1,1.1 -1.6,1.6 -1.4,1.4 -2.8,2.9 -4.1,4.3 l -2.1,2.3 2.3,1.4 c -0.4,0.4 -0.8,1.1 -0.9,2 -0.1,0.5 0,1.1 0,1.8 0.1,1 0.4,2.2 0.7,3.2 0.2,0.7 0.6,2 1.6,2.8 -0.1,0.3 -0.2,0.7 -0.2,1 -0.6,3.5 1,6.2 2,8 0.6,1.1 -0.4,4.5 -0.4,4.5 1,3 2.4,5.9 4.1,8.7 2.7,4.4 6.2,8.2 10.3,11.3 7.7,5.9 15.7,7.9 21,8.5 l 7.3,0.9 -5.2,-5.2 C 59,93.5 58.8,93.3 58.7,93.2 l 0.4,-2.9 c 0.4,-2.6 1.2,-5.1 2.3,-7.5 1.6,-3.4 3.4,-5.4 5.2,-7.4 1.9,-2.1 3.8,-4.3 5.2,-7.7 0.8,-2.1 1.3,-4.3 1.4,-6.6 1.6,1 3.4,1.8 5.2,2.3 l 5,1.3 z M 34.1,13.4 c 2.1,1.4 4.3,2.8 6.4,4.2 0.8,0.1 1.8,0.1 2.9,0.1 0.9,0 1.8,-0.1 2.6,-0.3 2.4,-3.4 4.7,-6.9 7.1,-10.3 1,3.9 2,7.8 3,11.8 0.9,0.2 1.7,0.4 2.6,0.7 1.2,0.3 2.4,0.6 3.6,0.9 2.3,-1 4.6,-1.9 6.9,-2.9 -2,3.6 -4.1,7.1 -6.1,10.7 C 59.6,27.1 55.3,25.9 50.3,25.1 45.1,24.3 40.6,24.2 36.8,24.4 35.8,20.7 35,17 34.1,13.4 Z m 28.4,22 C 61.9,35.2 61.2,35.1 60.4,35 59.1,34.9 58,34.9 57.1,35 c -0.8,-1.1 -1.6,-2.1 -2.4,-3.2 0.2,-0.2 3.7,-3.2 7.5,-1.9 0.3,0.1 3.9,1.4 4.1,4.4 0.1,1.8 -1.1,3.2 -1.5,3.6 -0.1,-0.5 -0.3,-1.3 -0.9,-2.1 -0.7,-1 -1.6,-1.5 -2.1,-1.7 0.3,0.4 0.5,0.9 0.7,1.3 z m -3.6,22 c 0.1,1.6 0.5,2.9 0.7,3.8 -0.7,-0.3 -2,-0.9 -3.2,-2.1 -1.3,-1.4 -1.9,-2.8 -2.1,-3.6 -0.2,1.5 -0.5,3.5 -0.8,5.8 -1.1,7.9 -1.3,9 -1.9,10.3 -0.8,1.9 -2.6,4.8 -7.1,7.4 -0.1,-2.1 -0.4,-5.1 -1.7,-8.6 -1.8,-4.6 -4.6,-7.6 -6.2,-9.1 1.3,0.3 3.5,0.9 5.8,2.5 2.1,1.4 3.3,3.1 4,4.2 -0.1,-1.7 -0.1,-4.3 0.6,-7.4 0.8,-3.4 2,-4.8 3.1,-8.3 0.6,-1.9 1.3,-4.7 1.3,-8.5 0.7,0.5 1.6,1.5 2.4,3 1.1,2.1 1.1,4 1.1,4.9 0.8,-1.7 2.2,-5 2.1,-9.3 0,-3.1 -0.8,-5.5 -1.4,-7.1 2.7,2.5 3.6,5 4,6.5 0.6,2.5 0.4,4.7 -0.1,8.3 -0.3,3 -0.9,4.5 -0.6,7.3 z M 24.6,39.9 c 1.1,-1.2 2.3,-2.3 3.4,-3.4 0.3,-0.5 0.6,-1.1 0.9,-1.6 -0.4,0.3 -0.9,0.6 -1.3,0.9 -0.1,0 -0.4,-0.1 -0.7,-0.3 -0.5,-0.4 -0.5,-1 -0.5,-1.1 3.8,-4.9 7.8,-7.7 9.9,-6.7 0.3,0.2 0.7,0.4 1,0.9 0.4,-0.2 0.9,-0.4 1.6,-0.6 1.3,-0.4 2.8,-0.5 4.8,-0.1 2.9,0.5 7.6,1.3 8.8,4.7 0.2,0.6 0.6,2 -0.2,4.1 -0.1,-0.4 -0.2,-1 -0.5,-1.6 -0.3,-0.6 -0.7,-1.1 -1,-1.4 0.1,1.9 0.1,5.7 -2.1,9.8 -1.2,2.1 -2.6,3.7 -3.7,4.7 -0.4,-0.5 -0.9,-1.1 -1.7,-1.6 -0.9,-0.7 -1.8,-1 -2.5,-1.2 0.7,0.7 1.7,2 2.4,3.8 0.8,1.9 0.8,3.6 0.8,4.6 -0.9,-1.3 -2,-2.7 -3.3,-4.1 -1.4,-1.5 -2.8,-2.9 -4,-4 0.6,1.1 1.3,2.8 1.6,4.8 0.3,2.1 0.6,3.5 -0.3,4.7 -1.3,1.8 -3.9,1.7 -4.1,1.7 -1,0 -1.8,-0.5 -3.4,-1.3 -1.3,-0.7 -1,-0.7 -3,-1.9 -1.5,-0.9 -2.2,-1.1 -2.6,-1.9 -0.1,-0.2 -0.5,-1 -0.2,-1.8 0.1,-0.4 0.4,-0.9 2.5,-2.1 1.8,-1.1 2.6,-1.3 3,-2.3 0.2,-0.4 0.2,-0.9 0.2,-1.1 -1,1.1 -1.5,1.3 -1.7,1.2 -0.3,-0.1 -0.2,-0.6 -0.6,-1 -0.5,-0.6 -1.5,-0.6 -1.8,-0.6 -1.2,0 -1.6,0.9 -2.6,0.7 -0.8,-0.2 -1.2,-0.9 -1.8,-0.6 -0.3,0.1 -0.4,0.4 -0.8,0.4 -0.3,0 -0.5,-0.1 -0.6,-0.2 1.4,-1.6 2.7,-3 4.1,-4.5 z m -2.5,14.2 c -0.2,0 -0.5,-0.2 -0.9,-1.6 -0.5,-1.6 -1.1,-4.3 -0.4,-4.6 0.2,-0.1 0.5,0.1 0.8,0.4 1.1,0.8 2.6,2.7 2,4.4 -0.3,0.7 -1,1.5 -1.5,1.4 z m 0.4,3.4 c 0.3,-1.8 1.3,-3.1 1.9,-3.8 1.6,1.2 3.1,2 4.1,2.5 1.5,0.7 2.2,0.9 3,1.7 1.3,1.4 1.4,3.2 1.4,3.4 0.1,2 -1,2.7 -1.5,5.1 -0.4,1.6 -0.3,3 -0.1,4.1 -2,-1.1 -5,-3.2 -7,-6.8 C 23.2,62 22.1,60 22.5,57.5 Z M 37.6,87.6 C 28.7,80.8 25.2,72.2 24,68.8 c 1.2,1.7 3,3.8 5.4,5.8 2,1.7 3.9,2.8 5.5,3.7 -0.4,-1.5 -0.7,-3.6 -0.6,-6 0.1,-2.9 0.7,-5.2 1.3,-6.9 0.3,2.9 1.2,7.5 4,12.4 2.1,3.9 4.6,6.6 6.5,8.4 -0.1,-1 0,-2.7 0.7,-4.5 1,-2.8 2.9,-4.5 3.8,-5.2 -0.2,2 -0.3,5.4 0.9,9.3 1.5,5 4.3,8.2 5.8,9.7 -3.6,-0.4 -11.7,-1.8 -19.7,-7.9 z m 36.1,-29 c -1.8,-1.3 -3,-2.7 -3.7,-3.7 1.2,5.7 0.4,9.6 -0.6,12.1 -2.3,6 -6.8,7.6 -10.3,14.9 -1.6,3.3 -2.2,6.3 -2.5,8.2 -3.7,-5.4 -3.9,-9.2 -3.3,-11.6 0.7,-2.9 2.7,-4.8 3.2,-9.3 0.2,-2 0,-3.7 -0.1,-4.8 0.7,0.4 1.8,1.2 2.7,2.6 0.8,1.2 1.1,2.3 1.3,3 1.9,-3.9 4.7,-11.1 4.4,-20.1 C 64.7,45.5 63.9,41.8 63,39 c 1.6,1.4 3.5,3.3 5.2,5.8 1.3,1.8 2.4,3.6 3.2,5.1 0,-0.8 0.1,-1.8 0.1,-3.2 0,-3.3 0,-5.8 -0.4,-8.1 -0.3,-1.9 -1.2,-4.7 -3.5,-8 1.6,0.9 4.1,2.4 5.9,5.2 1.8,2.7 2.2,5.2 2.8,8.9 0.9,5.3 0.1,7.1 1.3,12 0.5,2 1.1,3.6 1.5,4.7 -1.3,-0.6 -3.3,-1.3 -5.4,-2.8 z"
         style="fill:none;stroke:#000000" /><path
         id="path4"
         d="m 39.1,38 c -0.1,0.4 -0.4,0.6 -0.4,0.6 0.4,0.2 2.3,1.2 4.7,0.6 1.6,-0.4 2.5,-1.3 3,-1.8 -0.1,0 -0.6,0.1 -1,-0.2 -0.5,-0.3 -0.5,-0.8 -0.5,-0.9 0.5,0.5 1.2,0.6 1.7,0.4 0.3,-0.1 0.5,-0.4 0.6,-0.5 -1.3,-0.3 -3,-0.5 -5,-0.3 -1,0.1 -1.9,0.3 -2.6,0.5 0,-0.5 0,-1 0,-1.6 -0.9,0.9 -1.8,1.8 -2.7,2.7 -1.5,1.5 -2.9,3 -4.2,4.5 2.1,-1.5 4.3,-3 6.4,-4.6 -0.1,0 0.1,0.2 0,0.6 z"
         style="fill:none;stroke:#000000" /></g></g></svg>
